<?xml version="1.0" encoding="utf-8"?>
<!-- Generator: Adobe Illustrator 17.0.0, SVG Export Plug-In . SVG Version: 6.00 Build 0)  -->
<!DOCTYPE svg PUBLIC "-//W3C//DTD SVG 1.1//EN" "http://www.w3.org/Graphics/SVG/1.1/DTD/svg11.dtd">
<svg version="1.1" id="图层_1" xmlns="http://www.w3.org/2000/svg" xmlns:xlink="http://www.w3.org/1999/xlink" x="0px" y="0px"
	 width="50px" height="50px" viewBox="0 0 50 50" enable-background="new 0 0 50 50" xml:space="preserve">
<path fill-rule="evenodd" clip-rule="evenodd" fill="#666666" d="M46.451,0.054H3.55C1.566,0.054,0,1.617,0,3.596v42.809
	c0,1.979,1.566,3.541,3.55,3.541h42.902c1.984,0,3.549-1.562,3.549-3.541V3.596C50,1.617,48.435,0.054,46.451,0.054L46.451,0.054z
	 M3.55,46.404V46.3c0.104,0,0.104,0.104,0.208,0.104H3.55z M46.451,46.404L32.568,31.822l-6.889,5.937l-10.23-9.478L5.115,37.759
	L3.55,39.53V3.596h42.902V46.404z M35.178,24.948c3.653,0,6.681-3.02,6.681-6.666c0-3.75-3.027-6.666-6.681-6.666
	c-3.758,0-6.681,2.916-6.681,6.666C28.497,21.927,31.42,24.948,35.178,24.948L35.178,24.948z"/>
</svg>
