<?xml version="1.0" encoding="utf-8"?>
<!-- Generator: Adobe Illustrator 17.0.0, SVG Export Plug-In . SVG Version: 6.00 Build 0)  -->
<!DOCTYPE svg PUBLIC "-//W3C//DTD SVG 1.1//EN" "http://www.w3.org/Graphics/SVG/1.1/DTD/svg11.dtd">
<svg version="1.1" id="图层_1" xmlns="http://www.w3.org/2000/svg" xmlns:xlink="http://www.w3.org/1999/xlink" x="0px" y="0px"
	 width="50px" height="50px" viewBox="0 0 50 50" enable-background="new 0 0 50 50" xml:space="preserve">
<path fill="#666666" d="M49.538,42.823L40.816,34.1c2.211-3.448,3.509-7.538,3.509-11.938C44.325,9.922,34.404,0,22.163,0
	C9.922,0,0,9.922,0,22.163s9.922,22.163,22.163,22.163c4.4,0,8.489-1.299,11.936-3.509l8.721,8.722c0.615,0.615,1.623,0.615,2.238,0
	l4.48-4.477C50.154,44.443,50.154,43.435,49.538,42.823z M22.163,37.994c-8.729,0-15.831-7.102-15.831-15.831
	s7.102-15.83,15.831-15.83s15.83,7.102,15.83,15.83S30.892,37.994,22.163,37.994z"/>
</svg>
