<?xml version="1.0" encoding="utf-8"?>
<!-- Generator: Adobe Illustrator 17.0.0, SVG Export Plug-In . SVG Version: 6.00 Build 0)  -->
<!DOCTYPE svg PUBLIC "-//W3C//DTD SVG 1.1//EN" "http://www.w3.org/Graphics/SVG/1.1/DTD/svg11.dtd">
<svg version="1.1" id="图层_1" xmlns="http://www.w3.org/2000/svg" xmlns:xlink="http://www.w3.org/1999/xlink" x="0px" y="0px"
	 width="50px" height="50px" viewBox="0 0 50 50" enable-background="new 0 0 50 50" xml:space="preserve">
<path fill-rule="evenodd" clip-rule="evenodd" fill="#666666" d="M43.118,34.228h-5.176v-5.257h5.176V34.228z M43.118,44.743h-5.176
	v-5.258h5.176V44.743z M27.588,13.199h-5.177V7.942h5.177V13.199z M27.588,23.713h-5.177v-5.369h5.177V23.713z M27.588,34.228
	h-5.177v-5.257h5.177V34.228z M27.588,44.743h-5.177v-5.258h5.177V44.743z M12.059,23.713H6.882v-5.369h5.177V23.713z
	 M12.059,34.228H6.882v-5.257h5.177V34.228z M12.059,44.743H6.882v-5.258h5.177V44.743z M32.765,23.713V7.942L25.055,0l-7.82,7.942
	v5.257H1.706V50h46.588V23.713H32.765z"/>
</svg>
