<?xml version="1.0" encoding="utf-8"?>
<!-- Generator: Adobe Illustrator 17.0.0, SVG Export Plug-In . SVG Version: 6.00 Build 0)  -->
<!DOCTYPE svg PUBLIC "-//W3C//DTD SVG 1.1//EN" "http://www.w3.org/Graphics/SVG/1.1/DTD/svg11.dtd">
<svg version="1.1" id="图层_1" xmlns="http://www.w3.org/2000/svg" xmlns:xlink="http://www.w3.org/1999/xlink" x="0px" y="0px"
	 width="50px" height="50px" viewBox="0 0 50 50" enable-background="new 0 0 50 50" xml:space="preserve">
<path fill-rule="evenodd" clip-rule="evenodd" fill="#666666" d="M24.848,33.975c-4.844,0-8.933-4.06-8.933-8.867
	c0.108-4.701,4.09-8.761,8.933-8.761s8.826,4.061,8.826,8.761C33.674,29.915,29.584,33.975,24.848,33.975L24.848,33.975z
	 M43.575,27.671c0-0.748,0.216-1.496,0.216-2.564c0-0.961,0-1.709-0.216-2.457l5.274-4.274c0.538-0.534,0.538-0.962,0.323-1.496
	L44.114,8.12c-0.323-0.321-0.861-0.535-1.615-0.321l-6.243,2.564c-1.291-1.069-2.799-1.816-4.306-2.564l-1.076-6.517
	C31.198,0.534,30.445,0,29.906,0H19.789c-0.538,0-1.291,0.534-1.291,1.068l-0.969,6.731c-1.507,0.535-2.798,1.496-4.305,2.564
	L7.089,7.799c-0.753-0.214-1.292,0-1.722,0.535l-5.059,8.761c-0.322,0.32,0,1.068,0.431,1.496l5.382,4.06
	c0,0.748-0.323,1.496-0.323,2.457c0,1.068,0,1.816,0.323,2.564l-5.382,4.273c-0.431,0.535-0.431,0.962-0.215,1.496l5.058,8.76
	c0.215,0.32,0.754,0.535,1.507,0.32l6.35-2.564c1.292,1.068,2.798,1.816,4.305,2.564l0.969,6.518c0,0.534,0.538,0.961,1.291,0.961
	h10.117c0.538,0,1.291-0.427,1.291-0.961l0.969-6.518c1.507-0.748,3.121-1.496,4.305-2.564l6.35,2.564
	c0.538,0.214,1.292,0,1.507-0.534l5.059-8.761c0.323-0.534,0.323-1.283-0.215-1.496L43.575,27.671z"/>
</svg>
