<?xml version="1.0" encoding="utf-8"?>
<!-- Generator: Adobe Illustrator 17.0.0, SVG Export Plug-In . SVG Version: 6.00 Build 0)  -->
<!DOCTYPE svg PUBLIC "-//W3C//DTD SVG 1.1//EN" "http://www.w3.org/Graphics/SVG/1.1/DTD/svg11.dtd">
<svg version="1.1" id="图层_1" xmlns="http://www.w3.org/2000/svg" xmlns:xlink="http://www.w3.org/1999/xlink" x="0px" y="0px"
	 width="50px" height="50px" viewBox="0 0 50 50" enable-background="new 0 0 50 50" xml:space="preserve">
<path fill-rule="evenodd" clip-rule="evenodd" fill="#666666" d="M22.861,0.756c-1.738,0-1.471,0.765-2.406,0.896
	c-0.936,0.131,0.19-0.37-2.618,0.156c-2.807,0.527-3.799,4.078-3.933,5.394c-0.133,1.316-0.167,5.014-0.078,6.988
	c0.267,1.184-0.669,1.184-0.669,1.184c-1.682-0.106-0.926,5.053-0.926,5.053c0.242,1.272-0.087,1.905,2.404,2.889
	c1.187,3.326,4.286,5.085,4.286,5.085s0.015,2.053,0.062,3.572c-0.254-0.124,0.866,3.883-6.872,5.007
	c-7.738,1.123-9.22,3.59-10.678,4.963c-1.459,1.374-1.402,8.031-1.402,8.031L49.969,50c0,0-0.371-6.683-1.83-8.057
	c-1.459-1.373-3.048-3.84-10.786-4.963c-7.523-1.071-6.286-5.022-6.339-5.259c0.014-0.599,0.095-3.137,0.095-3.137
	s2.627-2.041,3.813-5.367c1.867-1.16,2.578-1.322,2.887-2.658c0,0,0.549-5.212-1.214-5.186c0,0-0.836,0.265-0.568-0.92
	c0.267-1.184,0.178-4.882,0.045-6.198c-0.134-1.316,0.068-5.077-2.74-5.603c-1.916-0.351-2.166-0.003-3.102-0.135
	C29.296,2.385,28.182,0,26.444,0L22.861,0.756z"/>
</svg>
