<?xml version="1.0" encoding="utf-8"?>
<!-- Generator: Adobe Illustrator 17.0.0, SVG Export Plug-In . SVG Version: 6.00 Build 0)  -->
<!DOCTYPE svg PUBLIC "-//W3C//DTD SVG 1.1//EN" "http://www.w3.org/Graphics/SVG/1.1/DTD/svg11.dtd">
<svg version="1.1" id="图层_1" xmlns="http://www.w3.org/2000/svg" xmlns:xlink="http://www.w3.org/1999/xlink" x="0px" y="0px"
	 width="50px" height="50px" viewBox="0 0 50 50" enable-background="new 0 0 50 50" xml:space="preserve">
<path fill-rule="evenodd" clip-rule="evenodd" fill="#666666" d="M11.647,6.986l4.075,4.149c-4.611,3.275-8.044,8.843-8.044,15.393
	c0,9.716,7.723,17.577,17.268,17.577s17.375-7.86,17.375-17.577c0-6.55-3.432-12.118-8.366-15.065l4.29-4.476
	c5.792,4.476,9.868,11.572,9.868,19.542C48.113,39.41,37.71,50,24.946,50C12.29,50,1.887,39.41,1.887,26.528
	C1.887,18.558,5.855,11.463,11.647,6.986L11.647,6.986z M22.05,0h5.792v29.476H22.05V0z"/>
</svg>
