<?xml version="1.0" encoding="utf-8"?>
<!-- Generator: Adobe Illustrator 17.0.0, SVG Export Plug-In . SVG Version: 6.00 Build 0)  -->
<!DOCTYPE svg PUBLIC "-//W3C//DTD SVG 1.1//EN" "http://www.w3.org/Graphics/SVG/1.1/DTD/svg11.dtd">
<svg version="1.1" id="图层_1" xmlns="http://www.w3.org/2000/svg" xmlns:xlink="http://www.w3.org/1999/xlink" x="0px" y="0px"
	 width="50px" height="50px" viewBox="0 0 50 50" enable-background="new 0 0 50 50" xml:space="preserve">
<path fill-rule="evenodd" clip-rule="evenodd" fill="#666666" d="M25,42.994c-6.168,0-11.698-3.291-14.995-7.962
	c0-4.99,9.996-7.749,14.995-7.749s14.995,2.759,14.995,7.749C36.805,39.703,31.274,42.994,25,42.994L25,42.994z M25,7.537
	c4.255,0,7.551,3.291,7.551,7.431c0,4.353-3.296,7.537-7.551,7.537c-4.254,0-7.444-3.185-7.444-7.537
	C17.556,10.828,20.746,7.537,25,7.537L25,7.537z M25,0C11.281,0,0.008,11.252,0.008,25.053C0.008,38.747,11.281,50,25,50
	c13.825,0,24.992-11.253,24.992-24.947C49.992,11.252,38.825,0,25,0L25,0z"/>
</svg>
