<?xml version="1.0" encoding="utf-8"?>
<!-- Generator: Adobe Illustrator 17.0.0, SVG Export Plug-In . SVG Version: 6.00 Build 0)  -->
<!DOCTYPE svg PUBLIC "-//W3C//DTD SVG 1.1//EN" "http://www.w3.org/Graphics/SVG/1.1/DTD/svg11.dtd">
<svg version="1.1" id="图层_1" xmlns="http://www.w3.org/2000/svg" xmlns:xlink="http://www.w3.org/1999/xlink" x="0px" y="0px"
	 width="50px" height="50px" viewBox="0 0 50 50" enable-background="new 0 0 50 50" xml:space="preserve">
<path fill-rule="evenodd" clip-rule="evenodd" fill="#666666" d="M25,38.056c2.7,0,4.882-2.125,4.882-4.757
	c0-2.632-2.181-4.757-4.882-4.757c-2.7,0-4.882,2.227-4.882,4.757C20.118,35.931,22.3,38.056,25,38.056L25,38.056z M39.646,45.243
	H10.355V21.457h29.291V45.243z M25,4.554c4.154,0,7.582,3.34,7.582,7.389V16.7H17.729v-4.757h-0.311
	C17.418,7.894,20.846,4.554,25,4.554L25,4.554z M39.646,16.7h-2.389v-4.757C37.257,5.263,31.856,0,25,0S12.848,5.263,12.848,11.943
	V16.7h-2.493c-2.7,0-4.882,2.125-4.882,4.757v23.786c0,2.632,2.181,4.757,4.882,4.757h29.291c2.7,0,4.882-2.126,4.882-4.757V21.457
	C44.527,18.826,42.346,16.7,39.646,16.7L39.646,16.7z"/>
</svg>
