<?xml version="1.0" encoding="utf-8"?>
<!-- Generator: Adobe Illustrator 17.0.0, SVG Export Plug-In . SVG Version: 6.00 Build 0)  -->
<!DOCTYPE svg PUBLIC "-//W3C//DTD SVG 1.1//EN" "http://www.w3.org/Graphics/SVG/1.1/DTD/svg11.dtd">
<svg version="1.1" id="图层_1" xmlns="http://www.w3.org/2000/svg" xmlns:xlink="http://www.w3.org/1999/xlink" x="0px" y="0px"
	 width="50px" height="50px" viewBox="0 0 50 50" enable-background="new 0 0 50 50" xml:space="preserve">
<g>
	<g>
		<path fill-rule="evenodd" clip-rule="evenodd" fill="#666666" d="M43.248,15.999l-2.19,0.038C41.059,6.765,33.464,0,24.681,0
			C15.897,0,8.776,6.765,8.776,16.037H6.939c0,0-3.669-0.83-3.669,3.175v26.617c0,0-1.265,4.171,3.32,4.171h36.659
			c0,0,3.636-0.333,3.636-4.171V20.505C46.884,20.505,47.201,15.999,43.248,15.999z M26.086,33.669
			c-0.302,0.122,1.928,10.414,1.928,10.414l-7.701,0.056c0,0,2.468-10.188,1.889-10.397c-2.253-0.81-3.875-3.064-3.875-5.717
			c0-3.336,2.561-6.039,5.721-6.039c3.16,0,5.721,2.703,5.721,6.039C29.769,30.602,28.239,32.802,26.086,33.669z M12.617,15.999
			c0-7.281,5.592-12.182,12.489-12.182c6.898,0,12.489,4.901,12.489,12.182H12.617z"/>
	</g>
</g>
</svg>
