<?xml version="1.0" encoding="utf-8"?>
<!-- Generator: Adobe Illustrator 17.0.0, SVG Export Plug-In . SVG Version: 6.00 Build 0)  -->
<!DOCTYPE svg PUBLIC "-//W3C//DTD SVG 1.1//EN" "http://www.w3.org/Graphics/SVG/1.1/DTD/svg11.dtd">
<svg version="1.1" id="图层_1" xmlns="http://www.w3.org/2000/svg" xmlns:xlink="http://www.w3.org/1999/xlink" x="0px" y="0px"
	 width="50px" height="50px" viewBox="0 0 50 50" enable-background="new 0 0 50 50" xml:space="preserve">
<path fill-rule="evenodd" clip-rule="evenodd" fill="#666666" d="M25,0C11.236,0,0.002,11.235,0.002,25
	c0,13.765,11.234,25,24.999,25s24.998-11.235,24.998-25C49.998,11.235,38.764,0,25,0L25,0z M30.263,37.854
	c-0.405,0.405-0.911,0.709-1.316,0.911c-2.126,1.417-8.704,2.632-10.222-0.202c-1.012-2.632,0.101-4.757,0.506-6.275
	c0.203-0.607,0.506-1.214,0.81-1.822c0.405-0.911,0.81-1.721,1.215-2.632c0.405-1.113,0.81-2.429,0.709-3.644
	c-0.101-0.303-0.101-0.607-0.304-0.911c-0.203-0.405-0.607-0.607-1.012-0.607c-0.203-0.101-0.911,0-0.81-0.405
	c0-0.101,0.101-0.101,0.101-0.203c0.203-0.101,0.405-0.202,0.506-0.304c0.405-0.202,0.709-0.303,1.012-0.506
	c0.81-0.405,1.721-0.81,2.632-1.012c0.203-0.101,0.303-0.101,0.405-0.101c0,0,3.846-0.81,4.858,2.227
	c1.215,2.935-1.113,6.68-1.113,6.68s-1.62,3.137-1.721,4.554c-0.202,1.417-0.607,2.834,1.518,3.138
	c0.304,0.102,0.708,0.102,1.012,0.203c0.304,0,0.708,0,1.012,0c0.203,0,0.506,0,0.709,0.203
	C30.87,37.551,30.465,37.753,30.263,37.854L30.263,37.854z M27.227,17.206c-2.227,0-4.048-1.822-4.048-4.048
	c0-2.227,1.822-4.049,4.048-4.049c2.226,0,4.048,1.822,4.048,4.049C31.275,15.384,29.453,17.206,27.227,17.206L27.227,17.206z"/>
</svg>
