<?xml version="1.0" encoding="utf-8"?>
<!-- Generator: Adobe Illustrator 17.0.0, SVG Export Plug-In . SVG Version: 6.00 Build 0)  -->
<!DOCTYPE svg PUBLIC "-//W3C//DTD SVG 1.1//EN" "http://www.w3.org/Graphics/SVG/1.1/DTD/svg11.dtd">
<svg version="1.1" id="图层_1" xmlns="http://www.w3.org/2000/svg" xmlns:xlink="http://www.w3.org/1999/xlink" x="0px" y="0px"
	 width="50px" height="50px" viewBox="0 0 50 50" enable-background="new 0 0 50 50" xml:space="preserve">
<path fill="#666666" d="M34.087,38.1c-2.755,1.952-5.982,2.924-9.276,2.885c-0.437-0.007-0.867-0.039-1.298-0.071
	c-0.173-0.018-0.349-0.046-0.522-0.071c-0.343-0.043-0.67-0.085-1.002-0.153c-0.201-0.036-0.405-0.093-0.6-0.139
	c-0.324-0.071-0.641-0.142-0.959-0.235c-0.148-0.057-0.293-0.103-0.441-0.164c-0.367-0.114-0.726-0.246-1.075-0.391
	c-0.078-0.036-0.155-0.064-0.237-0.096c-0.409-0.189-0.815-0.385-1.206-0.591c-0.014-0.011-0.036-0.018-0.049-0.028
	c-1.33-0.741-2.539-1.646-3.604-2.732c-0.018-0.018-0.032-0.039-0.053-0.057c-0.331-0.335-0.646-0.676-0.945-1.051
	c-0.06-0.075-0.12-0.15-0.184-0.242c-2.162-2.735-3.466-6.197-3.466-9.958h4.172L6.666,14.896L0,24.996h4.165
	c0,4.423,1.372,8.526,3.692,11.924c0.028,0.05,0.046,0.103,0.078,0.146c0.24,0.352,0.508,0.67,0.765,0.993
	c0.099,0.118,0.183,0.239,0.289,0.374c0.378,0.459,0.787,0.897,1.2,1.328c0.042,0.043,0.078,0.078,0.113,0.117
	c1.397,1.414,2.969,2.596,4.687,3.551c0.046,0.025,0.084,0.046,0.138,0.075c0.494,0.271,1.001,0.516,1.513,0.744
	c0.13,0.057,0.254,0.114,0.381,0.168c0.445,0.189,0.896,0.349,1.351,0.506c0.215,0.075,0.427,0.146,0.646,0.217
	c0.399,0.114,0.804,0.217,1.213,0.313c0.275,0.064,0.536,0.135,0.818,0.185c0.113,0.028,0.218,0.064,0.335,0.074
	c0.391,0.071,0.78,0.107,1.16,0.153c0.141,0.025,0.282,0.05,0.42,0.064c0.695,0.068,1.389,0.111,2.081,0.111
	c4.232,0,8.366-1.307,11.914-3.818c1.129-0.802,1.407-2.379,0.617-3.512C36.771,37.569,35.215,37.291,34.087,38.1 M45.831,24.996
	c0-4.413-1.354-8.512-3.664-11.892c-0.035-0.057-0.057-0.117-0.085-0.167c-0.3-0.416-0.603-0.805-0.921-1.193
	c-0.036-0.043-0.071-0.093-0.102-0.143c-2.123-2.582-4.779-4.587-7.78-5.898c-0.088-0.036-0.162-0.075-0.251-0.111
	c-0.483-0.199-0.973-0.374-1.474-0.545c-0.169-0.057-0.353-0.121-0.529-0.174c-0.437-0.139-0.867-0.249-1.308-0.353
	c-0.243-0.054-0.494-0.118-0.737-0.167c-0.124-0.022-0.233-0.057-0.363-0.082c-0.328-0.053-0.652-0.085-0.984-0.124
	c-0.229-0.028-0.448-0.064-0.681-0.089c-0.554-0.053-1.104-0.075-1.654-0.086c-0.099,0-0.197-0.014-0.3-0.014
	c-0.018,0-0.035,0.004-0.053,0.007c-4.228,0.003-8.355,1.293-11.896,3.8c-1.128,0.798-1.407,2.372-0.61,3.519
	c0.787,1.136,2.353,1.418,3.485,0.612c2.733-1.93,5.922-2.913,9.194-2.881c0.469,0.004,0.938,0.025,1.393,0.071
	c0.141,0.011,0.279,0.032,0.42,0.054c0.377,0.05,0.751,0.1,1.118,0.178c0.159,0.028,0.324,0.071,0.476,0.107
	c0.367,0.082,0.72,0.167,1.072,0.278c0.116,0.032,0.222,0.071,0.332,0.114c0.409,0.132,0.807,0.274,1.188,0.438
	c0.042,0.011,0.081,0.043,0.12,0.057c2.335,1.012,4.377,2.568,5.975,4.52c0.003,0.007,0.01,0.022,0.024,0.032
	c2.247,2.764,3.594,6.29,3.597,10.133h-4.176l6.68,10.104L50,24.996H45.831L45.831,24.996L45.831,24.996z M45.831,24.996"/>
</svg>
