<?xml version="1.0" encoding="utf-8"?>
<!-- Generator: Adobe Illustrator 17.0.0, SVG Export Plug-In . SVG Version: 6.00 Build 0)  -->
<!DOCTYPE svg PUBLIC "-//W3C//DTD SVG 1.1//EN" "http://www.w3.org/Graphics/SVG/1.1/DTD/svg11.dtd">
<svg version="1.1" id="图层_1" xmlns="http://www.w3.org/2000/svg" xmlns:xlink="http://www.w3.org/1999/xlink" x="0px" y="0px"
	 width="50px" height="50px" viewBox="0 0 50 50" enable-background="new 0 0 50 50" xml:space="preserve">
<path fill="#666666" d="M34.545,7.143V3.572C34.545,1.6,32.836,0,30.728,0H19.273c-2.111,0-3.82,1.6-3.82,3.572v3.572H0.181v3.572
	h5.728v35.714C5.909,48.402,7.62,50,9.726,50h30.546c2.111,0,3.82-1.598,3.82-3.572V10.715h5.727V7.143H34.545L34.545,7.143
	L34.545,7.143z M19.273,3.572h11.455v3.572H19.273V3.572L19.273,3.572L19.273,3.572z M40.272,46.428H9.726V10.715h30.546V46.428
	L40.272,46.428L40.272,46.428z M15.453,16.071h3.82v25h-3.82V16.071L15.453,16.071L15.453,16.071z M23.09,16.071h3.817v25H23.09
	V16.071L23.09,16.071L23.09,16.071z M30.728,16.071h3.817v25h-3.817V16.071L30.728,16.071L30.728,16.071z M30.728,16.071"/>
</svg>
