<?xml version="1.0" encoding="utf-8"?>
<!-- Generator: Adobe Illustrator 17.0.0, SVG Export Plug-In . SVG Version: 6.00 Build 0)  -->
<!DOCTYPE svg PUBLIC "-//W3C//DTD SVG 1.1//EN" "http://www.w3.org/Graphics/SVG/1.1/DTD/svg11.dtd">
<svg version="1.1" id="图层_1" xmlns="http://www.w3.org/2000/svg" xmlns:xlink="http://www.w3.org/1999/xlink" x="0px" y="0px"
	 width="50px" height="50px" viewBox="0 0 50 50" enable-background="new 0 0 50 50" xml:space="preserve">
<path fill-rule="evenodd" clip-rule="evenodd" fill="#666666" d="M39.995,40.022c-2.659,0-4.998,2.229-4.998,4.99
	c0,2.654,2.339,4.989,4.998,4.989c2.765,0,4.998-2.335,4.998-4.989C44.994,42.251,42.76,40.022,39.995,40.022L39.995,40.022z
	 M0.008,0v4.989h4.998l9.039,19.002l-3.509,5.945c-0.213,0.85-0.532,1.805-0.532,2.548c0,2.76,2.233,4.99,4.998,4.99h29.99v-4.99
	H16.067l-0.532-0.53v-0.212l2.233-4.246h18.504c2.021,0,3.509-0.955,4.254-2.548l9.039-16.136c0.425-0.531,0.425-0.743,0.425-1.274
	c0-1.486-0.957-2.548-2.447-2.548H10.537L8.303,0H0.008z M15.003,40.022c-2.765,0-4.998,2.229-4.998,4.99
	c0,2.654,2.233,4.989,4.998,4.989s4.998-2.335,4.998-4.989C20.002,42.251,17.768,40.022,15.003,40.022L15.003,40.022z"/>
</svg>
